<svg width="38" height="38" viewBox="0 0 38 38" fill="none" xmlns="http://www.w3.org/2000/svg">
<path d="M3 16.5C1.61929 16.5 0.5 17.6193 0.5 19C0.5 20.3807 1.61929 21.5 3 21.5V16.5ZM36.7678 20.7678C37.7441 19.7915 37.7441 18.2085 36.7678 17.2322L20.8579 1.32233C19.8816 0.34602 18.2986 0.34602 17.3223 1.32233C16.346 2.29864 16.346 3.88155 17.3223 4.85786L31.4645 19L17.3223 33.1421C16.346 34.1184 16.346 35.7014 17.3223 36.6777C18.2986 37.654 19.8816 37.654 20.8579 36.6777L36.7678 20.7678ZM3 21.5H35V16.5H3V21.5Z" fill="#9D2929"/>
</svg>
